<svg width="387" height="1474" viewBox="0 0 387 1474" fill="none" xmlns="http://www.w3.org/2000/svg">
<path fill-rule="evenodd" clip-rule="evenodd" d="M253 1470V128H261V1470H253Z" fill="#B60000"/>
<path fill-rule="evenodd" clip-rule="evenodd" d="M126 1474V128H134V1474H126Z" fill="#B60000"/>
<mask id="mask0_284_2374" style="mask-type:alpha" maskUnits="userSpaceOnUse" x="21" y="0" width="353" height="128">
<rect x="21" width="353" height="128" fill="#C4C4C4"/>
</mask>
<g mask="url(#mask0_284_2374)">
<circle cx="193" cy="230" r="183" fill="white" stroke="#B60000" stroke-width="8"/>
</g>
<path fill-rule="evenodd" clip-rule="evenodd" d="M371.751 135.887H15.2486C11.183 135.887 7.88723 139.182 7.88723 143.248V1458.75C7.88723 1462.82 11.183 1466.11 15.2486 1466.11H371.751C375.817 1466.11 379.113 1462.82 379.113 1458.75V143.248C379.113 139.182 375.817 135.887 371.751 135.887ZM15.2486 128C6.82705 128 0 134.827 0 143.248V1458.75C0 1467.17 6.82705 1474 15.2486 1474H371.751C380.173 1474 387 1467.17 387 1458.75V143.248C387 134.827 380.173 128 371.751 128H15.2486Z" fill="#B60000"/>
</svg>
