<svg width="155" height="155" viewBox="0 0 155 155" fill="none" xmlns="http://www.w3.org/2000/svg">
<circle cx="77.5" cy="77.5" r="77.5" fill="#B60000"/>
<path d="M77.8529 13.8392H78.5008C78.6334 14.5551 78.8596 15.2505 79.1736 15.9075C91.9899 35.8421 105.844 54.9461 124.201 70.2792C127.233 72.8209 130.015 75.62 133.122 78.4358C127.307 83.8098 121.875 88.9347 116.31 93.9184C101.201 107.474 90.2871 124.319 79.1736 141.006C78.8581 141.662 78.6318 142.358 78.5008 143.074H77.8529C62.9019 118.72 45.293 96.6095 22.4097 78.8428C23.2403 77.954 23.5974 77.5553 23.9712 77.1816C30.6161 70.9603 37.3607 64.8221 43.9059 58.5261C57.6275 45.4606 67.437 29.4298 77.8529 13.8392Z" fill="white"/>
</svg>
