<svg width="155" height="155" viewBox="0 0 155 155" fill="none" xmlns="http://www.w3.org/2000/svg">
<circle cx="77.5" cy="77.5" r="77.5" fill="#B60000"/>
<path d="M24.1028 56.8404C24.1028 54.5691 24.2814 52.3021 24.2814 50.0308C24.2814 49.884 24.3206 49.7458 24.3337 49.599C24.597 47.1579 25.3478 44.7932 26.5426 42.6427C27.9411 40.0087 29.6228 37.5344 32.019 35.6734C33.5645 34.4074 35.1996 33.253 36.9117 32.2189C39.9823 30.4226 43.4527 29.4052 47.0151 29.2568C49.2327 29.179 51.4852 29.0322 53.6766 29.3043C57.3561 29.7494 60.9021 30.9478 64.0894 32.8235C67.1968 34.6611 69.9363 37.0499 72.1712 39.8705C74.0208 42.2823 75.5781 44.9012 76.8112 47.6732C76.9854 48.0489 77.212 48.4029 77.4691 48.865C77.6956 48.4332 77.8524 48.1654 78.0049 47.8761C78.8196 46.2871 79.5342 44.6333 80.4709 43.1263C82.2051 40.3726 84.353 37.8973 86.8405 35.7856C88.7342 34.1235 90.8443 32.7206 93.1143 31.6144C96.6933 29.9379 100.61 29.0889 104.568 29.1315C106.876 29.143 109.176 29.3845 111.435 29.8527C117.591 31.0229 123.053 34.5033 126.683 39.5682C129.351 43.2244 130.867 47.5816 131.04 52.0905C131.119 54.7675 130.826 57.4424 130.169 60.0401C129.158 64.4358 127.372 68.5164 125.259 72.4889C122.209 78.2319 118.214 83.31 114.158 88.3361C111.848 91.199 109.396 93.9496 107.043 96.7779C104.555 99.766 102.059 102.75 99.6669 105.816C97.0136 109.205 94.3952 112.625 91.8987 116.131C87.9517 121.56 84.6012 127.39 81.9042 133.524C80.5231 136.737 79.3904 140.058 78.1487 143.331H76.8416C75.1991 138.114 73.4216 132.967 70.8816 128.084C68.459 123.446 65.7256 118.974 62.6995 114.698C60.3643 111.382 57.8548 108.182 55.3845 104.956C53.7594 102.84 52.0864 100.755 50.4003 98.6865C48.3309 96.1432 46.2135 93.6344 44.1353 91.0954C42.3708 88.9363 40.6106 86.7773 38.881 84.5751C37.0032 82.1959 35.108 79.8253 33.3304 77.3726C31.9842 75.5073 30.773 73.5469 29.5705 71.5865C27.0673 67.6004 25.3454 63.1821 24.4949 58.5633C24.4121 57.9501 24.2422 57.3974 24.1028 56.8404Z" fill="white"/>
</svg>
