<svg width="173" height="172" viewBox="0 0 173 172" fill="none" xmlns="http://www.w3.org/2000/svg">
<circle cx="86.0416" cy="85.9999" r="83.5" fill="#FBCF32" stroke="#B60000" stroke-width="5"/>
<path d="M111.57 102.24C111.57 107.168 109.682 111.36 105.906 114.816C102.13 118.208 96.5938 120.096 89.2978 120.48V131.52H84.4977V120.576C79.8257 120.32 75.4097 119.424 71.2497 117.888C67.1537 116.288 63.9217 114.272 61.5537 111.84L64.3377 106.368C66.5777 108.544 69.4897 110.368 73.0737 111.84C76.7217 113.312 80.5297 114.176 84.4977 114.432V89.1839C80.0817 88.0959 76.4017 86.9439 73.4577 85.7279C70.5137 84.4479 68.0497 82.6239 66.0657 80.2559C64.1457 77.8239 63.1857 74.6239 63.1857 70.6559C63.1857 65.7279 64.9777 61.5999 68.5617 58.2719C72.1457 54.8799 77.4577 52.8959 84.4977 52.3199V41.2799H89.2978V52.2239C92.9457 52.3519 96.4657 52.9599 99.8577 54.0479C103.314 55.0719 106.29 56.4479 108.786 58.1759L106.386 63.8399C103.762 62.1759 100.978 60.8639 98.0337 59.9039C95.0897 58.9439 92.1777 58.3999 89.2978 58.2719V83.7119C94.0338 84.8639 97.9058 86.0479 100.914 87.2639C103.922 88.4159 106.45 90.2079 108.498 92.6399C110.546 95.0719 111.57 98.2719 111.57 102.24ZM70.1937 70.4639C70.1937 73.7919 71.4097 76.3199 73.8417 78.0479C76.3377 79.7759 79.8897 81.2479 84.4977 82.4639V58.4639C79.7617 58.8479 76.1777 60.1599 73.7457 62.3999C71.3777 64.5759 70.1937 67.2639 70.1937 70.4639ZM89.2978 114.432C94.3538 114.048 98.1617 112.8 100.722 110.688C103.282 108.576 104.562 105.888 104.562 102.624C104.562 99.1679 103.25 96.5759 100.626 94.8479C98.0017 93.1199 94.2257 91.6479 89.2978 90.4319V114.432Z" fill="white"/>
</svg>
