<svg width="155" height="155" viewBox="0 0 155 155" fill="none" xmlns="http://www.w3.org/2000/svg">
<circle cx="77.5" cy="77.5" r="77.5" fill="#B60000"/>
<path d="M94.9601 135.241H62.5885C62.688 135.049 62.7531 134.897 62.8355 134.756C64.7732 131.501 66.7211 128.256 68.6657 124.998C70.305 122.245 71.838 119.41 72.9423 116.375C73.8001 114.128 74.2956 111.758 74.4102 109.355C74.4102 109.176 74.4102 109.011 74.4102 108.753C73.8855 109.056 73.4225 109.328 72.9526 109.586C68.895 111.879 64.444 113.387 59.8312 114.031C53.315 114.892 47.0458 114.087 41.2533 110.8C35.4608 107.514 31.7294 102.594 30.4262 95.9667C29.6923 92.2401 29.9563 88.5308 30.8549 84.8628C32.0278 80.0455 34.1884 75.6928 36.8737 71.5774C39.2997 67.9146 42.0549 64.4823 45.1047 61.3235C50.4308 55.7148 55.5442 49.9203 60.5377 43.9985C66.6183 36.7725 72.3147 29.2335 77.8912 21.605L78.3096 21.0406L79.3042 22.2897C84.2084 28.4834 89.0544 34.7252 94.0272 40.8707C100.002 48.248 106.278 55.3638 112.674 62.3764C116.662 66.7498 120.01 71.574 122.362 77.0451C124.18 81.2843 125.312 85.6818 125.154 90.327C124.845 99.4902 120.644 106.296 112.598 110.628C108.037 113.082 103.092 113.904 97.9506 113.595C92.4634 113.25 87.3705 111.588 82.5691 108.949C82.4628 108.887 82.3462 108.839 82.0855 108.715C82.3222 110.064 82.4765 111.31 82.7714 112.524C83.5539 115.696 84.8268 118.725 86.5439 121.502C88.6017 124.922 90.7589 128.263 92.868 131.646C93.554 132.726 94.1918 133.82 94.8469 134.908C94.8503 134.983 94.888 135.09 94.9601 135.241Z" fill="white"/>
</svg>
