<svg width="1786" height="256" viewBox="0 0 1786 256" fill="none" xmlns="http://www.w3.org/2000/svg">
<path d="M35.9124 183.205L43.9752 208.02H70.067L48.9583 223.356L57.0211 248.171L35.9124 232.835L14.8036 248.171L22.8664 223.356L1.75768 208.02H27.8495L35.9124 183.205Z" fill="#FFD7A7"/>
<path d="M846.262 183.2L838.083 208.015H811.613L833.027 223.351L824.848 248.166L846.262 232.83L867.677 248.166L859.497 223.351L880.912 208.015H854.442L846.262 183.2Z" fill="#FFD7A7"/>
<path d="M107.737 119.708L115.8 144.523H141.892L120.783 159.859L128.846 184.674L107.737 169.338L86.6283 184.674L94.6911 159.859L73.5823 144.523H99.6742L107.737 119.708Z" fill="#FF9C01"/>
<path d="M786.02 119.71L778.074 144.525H752.36L773.163 159.861L765.217 184.676L786.02 169.339L806.823 184.676L798.877 159.861L819.68 144.525H793.966L786.02 119.71Z" fill="#FF9C01"/>
<path d="M186.848 67.6611L194.911 92.476H221.003L199.894 107.812L207.957 132.627L186.848 117.291L165.739 132.627L173.802 107.812L152.694 92.476H178.785L186.848 67.6611Z" fill="#FFD7A7"/>
<path d="M701.051 67.657L692.872 92.4718H666.402L687.816 107.808L679.637 132.623L701.051 117.287L722.466 132.623L714.286 107.808L735.701 92.4718H709.231L701.051 67.657Z" fill="#FFD7A7"/>
<path d="M273.246 31.2283L281.309 56.0431H307.401L286.292 71.3795L294.355 96.1943L273.246 80.8579L252.137 96.1943L260.2 71.3795L239.092 56.0431H265.183L273.246 31.2283Z" fill="#FF9C01"/>
<path d="M614.522 31.2314L606.459 56.4059L580.367 56.4059L601.476 71.9646L593.413 97.139L614.522 81.5804L635.63 97.139L627.567 71.9646L648.676 56.4059L622.584 56.4059L614.522 31.2314Z" fill="#FF9C01"/>
<path d="M359.644 10.4094L367.707 35.2243H393.799L372.69 50.5607L380.753 75.3755L359.644 60.0391L338.535 75.3755L346.598 50.5607L325.489 35.2243H351.581L359.644 10.4094Z" fill="#FFD7A7"/>
<path d="M529.629 10.4104L521.566 35.2252H495.474L516.583 50.5616L508.52 75.3765L529.629 60.0401L550.738 75.3765L542.675 50.5616L563.784 35.2252H537.692L529.629 10.4104Z" fill="#FFD7A7"/>
<path d="M445.001 0L453.064 24.8148H479.156L458.047 40.1512L466.11 64.9661L445.001 49.6297L423.892 64.9661L431.955 40.1512L410.846 24.8148H436.938L445.001 0Z" fill="#FF9C01"/>
<path d="M938.453 183.205L946.516 208.02H972.608L951.499 223.356L959.562 248.171L938.453 232.835L917.345 248.171L925.408 223.356L904.299 208.02H930.391L938.453 183.205Z" fill="#FF9C01"/>
<path d="M1748.8 183.2L1740.62 208.015H1714.15L1735.57 223.351L1727.39 248.166L1748.8 232.83L1770.22 248.166L1762.04 223.351L1783.45 208.015H1756.98L1748.8 183.2Z" fill="#FF9C01"/>
<path d="M1010.28 119.708L1018.34 144.523H1044.43L1023.32 159.859L1031.39 184.674L1010.28 169.338L989.169 184.674L997.232 159.859L976.124 144.523H1002.22L1010.28 119.708Z" fill="#FFD7A7"/>
<path d="M1688.56 119.71L1680.62 144.525H1654.9L1675.7 159.861L1667.76 184.676L1688.56 169.339L1709.36 184.676L1701.42 159.861L1722.22 144.525H1696.51L1688.56 119.71Z" fill="#FFD7A7"/>
<path d="M1089.39 67.6611L1097.45 92.476H1123.54L1102.44 107.812L1110.5 132.627L1089.39 117.291L1068.28 132.627L1076.34 107.812L1055.23 92.476H1081.33L1089.39 67.6611Z" fill="#FF9C01"/>
<path d="M1603.59 67.657L1595.41 92.4718H1568.94L1590.36 107.808L1582.18 132.623L1603.59 117.287L1625.01 132.623L1616.83 107.808L1638.24 92.4718H1611.77L1603.59 67.657Z" fill="#FF9C01"/>
<path d="M1175.79 31.2283L1183.85 56.0431H1209.94L1188.83 71.3795L1196.9 96.1943L1175.79 80.8579L1154.68 96.1943L1162.74 71.3795L1141.63 56.0431H1167.72L1175.79 31.2283Z" fill="#FFD7A7"/>
<path d="M1517.06 31.2314L1509 56.4059L1482.91 56.4059L1504.02 71.9646L1495.95 97.139L1517.06 81.5804L1538.17 97.139L1530.11 71.9646L1551.22 56.4059L1525.13 56.4059L1517.06 31.2314Z" fill="#FFD7A7"/>
<path d="M1262.19 10.4094L1270.25 35.2243H1296.34L1275.23 50.5607L1283.29 75.3755L1262.19 60.0391L1241.08 75.3755L1249.14 50.5607L1228.03 35.2243H1254.12L1262.19 10.4094Z" fill="#FF9C01"/>
<path d="M1432.17 10.4104L1424.11 35.2252H1398.02L1419.12 50.5616L1411.06 75.3765L1432.17 60.0401L1453.28 75.3765L1445.22 50.5616L1466.32 35.2252H1440.23L1432.17 10.4104Z" fill="#FF9C01"/>
<path d="M1347.54 0L1355.6 24.8148H1381.7L1360.59 40.1512L1368.65 64.9661L1347.54 49.6297L1326.43 64.9661L1334.5 40.1512L1313.39 24.8148H1339.48L1347.54 0Z" fill="#FFD7A7"/>
</svg>
