<svg width="1852" height="265" viewBox="0 0 1852 265" fill="none" xmlns="http://www.w3.org/2000/svg">
<path d="M37.2402 189.979L45.6012 215.712H72.6578L50.7685 231.615L59.1295 257.347L37.2402 241.444L15.351 257.347L23.7119 231.615L1.82267 215.712H28.8793L37.2402 189.979Z" fill="#FFD7A7"/>
<path d="M877.553 189.974L869.071 215.706H841.622L863.829 231.61L855.347 257.342L877.553 241.439L899.76 257.342L891.277 231.61L913.484 215.706H886.035L877.553 189.974Z" fill="#FFD7A7"/>
<path d="M111.721 124.134L120.082 149.867H147.138L125.249 165.77L133.61 191.502L111.721 175.599L89.8314 191.502L98.1924 165.77L76.3031 149.867H103.36L111.721 124.134Z" fill="#FF9C01"/>
<path d="M815.084 124.136L806.844 149.868H780.179L801.751 165.772L793.512 191.504L815.084 175.601L836.656 191.504L828.416 165.772L849.988 149.868H823.323L815.084 124.136Z" fill="#FF9C01"/>
<path d="M193.757 70.1628L202.118 95.8952H229.175L207.286 111.799L215.647 137.531L193.757 121.628L171.868 137.531L180.229 111.799L158.34 95.8952H185.396L193.757 70.1628Z" fill="#FFD7A7"/>
<path d="M726.973 70.1587L718.491 95.8911H691.042L713.249 111.795L704.767 137.527L726.973 121.623L749.18 137.527L740.698 111.795L762.904 95.8911H735.455L726.973 70.1587Z" fill="#FFD7A7"/>
<path d="M283.349 32.3831L291.71 58.1154H318.767L296.878 74.0189L305.239 99.7513L283.349 83.8478L261.46 99.7513L269.821 74.0189L247.932 58.1154H274.988L283.349 32.3831Z" fill="#FF9C01"/>
<path d="M637.244 32.3862L628.883 58.4915H601.826L623.715 74.6255L615.354 100.731L637.244 84.5968L659.133 100.731L650.772 74.6255L672.661 58.4915H645.605L637.244 32.3862Z" fill="#FF9C01"/>
<path d="M372.942 10.7939L381.303 36.5263H408.36L386.47 52.4298L394.831 78.1621L372.942 62.2587L351.053 78.1621L359.414 52.4298L337.525 36.5263H364.581L372.942 10.7939Z" fill="#FFD7A7"/>
<path d="M549.212 10.7954L540.851 36.5278H513.795L535.684 52.4313L527.323 78.1636L549.212 62.2601L571.102 78.1636L562.741 52.4313L584.63 36.5278H557.573L549.212 10.7954Z" fill="#FFD7A7"/>
<path d="M461.455 0L469.816 25.7324H496.873L474.983 41.6358L483.344 67.3682L461.455 51.4647L439.566 67.3682L447.927 41.6358L426.038 25.7324H453.094L461.455 0Z" fill="#FF9C01"/>
<path d="M973.153 189.979L981.514 215.712H1008.57L986.681 231.615L995.042 257.347L973.153 241.444L951.264 257.347L959.625 231.615L937.735 215.712H964.792L973.153 189.979Z" fill="#FF9C01"/>
<path d="M1813.47 189.974L1804.98 215.706H1777.54L1799.74 231.61L1791.26 257.342L1813.47 241.439L1835.67 257.342L1827.19 231.61L1849.4 215.706H1821.95L1813.47 189.974Z" fill="#FF9C01"/>
<path d="M1047.63 124.134L1055.99 149.867H1083.05L1061.16 165.77L1069.52 191.502L1047.63 175.599L1025.74 191.502L1034.1 165.77L1012.22 149.867H1039.27L1047.63 124.134Z" fill="#FFD7A7"/>
<path d="M1751 124.136L1742.76 149.868H1716.09L1737.66 165.772L1729.42 191.504L1751 175.601L1772.57 191.504L1764.33 165.772L1785.9 149.868H1759.24L1751 124.136Z" fill="#FFD7A7"/>
<path d="M1129.67 70.1628L1138.03 95.8952H1165.09L1143.2 111.799L1151.56 137.531L1129.67 121.628L1107.78 137.531L1116.14 111.799L1094.25 95.8952H1121.31L1129.67 70.1628Z" fill="#FF9C01"/>
<path d="M1662.89 70.1587L1654.4 95.8911H1626.95L1649.16 111.795L1640.68 137.527L1662.89 121.623L1685.09 137.527L1676.61 111.795L1698.82 95.8911H1671.37L1662.89 70.1587Z" fill="#FF9C01"/>
<path d="M1219.26 32.3831L1227.62 58.1154H1254.68L1232.79 74.0189L1241.15 99.7513L1219.26 83.8478L1197.37 99.7513L1205.73 74.0189L1183.84 58.1154H1210.9L1219.26 32.3831Z" fill="#FFD7A7"/>
<path d="M1573.16 32.3862L1564.8 58.4915H1537.74L1559.63 74.6255L1551.27 100.731L1573.16 84.5968L1595.05 100.731L1586.68 74.6255L1608.57 58.4915H1581.52L1573.16 32.3862Z" fill="#FFD7A7"/>
<path d="M1308.85 10.7939L1317.22 36.5263H1344.27L1322.38 52.4298L1330.74 78.1621L1308.85 62.2587L1286.97 78.1621L1295.33 52.4298L1273.44 36.5263H1300.49L1308.85 10.7939Z" fill="#FF9C01"/>
<path d="M1485.13 10.7954L1476.76 36.5278H1449.71L1471.6 52.4313L1463.24 78.1636L1485.13 62.2601L1507.01 78.1636L1498.65 52.4313L1520.54 36.5278H1493.49L1485.13 10.7954Z" fill="#FF9C01"/>
<path d="M1397.37 0L1405.73 25.7324H1432.79L1410.9 41.6358L1419.26 67.3682L1397.37 51.4647L1375.48 67.3682L1383.84 41.6358L1361.95 25.7324H1389.01L1397.37 0Z" fill="#FFD7A7"/>
</svg>
