<svg width="1599" height="229" viewBox="0 0 1599 229" fill="none" xmlns="http://www.w3.org/2000/svg">
<path d="M32.1505 164.015L39.3688 186.23H62.7275L43.8299 199.96L51.0482 222.176L32.1505 208.446L13.2529 222.176L20.4712 199.96L1.57356 186.23H24.9323L32.1505 164.015Z" fill="#FFD7A7"/>
<path d="M757.616 164.01L750.293 186.225H726.596L745.767 199.955L738.444 222.171L757.616 208.441L776.787 222.171L769.465 199.955L788.636 186.225H764.939L757.616 164.01Z" fill="#FFD7A7"/>
<path d="M96.4513 107.168L103.67 129.384H127.028L108.131 143.114L115.349 165.329L96.4513 151.599L77.5537 165.329L84.772 143.114L65.8743 129.384H89.2331L96.4513 107.168Z" fill="#FF9C01"/>
<path d="M703.685 107.17L696.571 129.385H673.551L692.174 143.115L685.061 165.331L703.685 151.601L722.308 165.331L715.195 143.115L733.818 129.385H710.798L703.685 107.17Z" fill="#FF9C01"/>
<path d="M167.276 60.5732L174.494 82.7887H197.853L178.955 96.5186L186.173 118.734L167.276 105.004L148.378 118.734L155.596 96.5186L136.699 82.7887H160.057L167.276 60.5732Z" fill="#FFD7A7"/>
<path d="M627.616 60.5698L620.293 82.7853H596.596L615.767 96.5152L608.444 118.731L627.616 105.001L646.787 118.731L639.465 96.5152L658.636 82.7853H634.939L627.616 60.5698Z" fill="#FFD7A7"/>
<path d="M244.623 27.957L251.841 50.1725H275.2L256.303 63.9024L263.521 86.1179L244.623 72.388L225.726 86.1179L232.944 63.9024L214.046 50.1725H237.405L244.623 27.957Z" fill="#FF9C01"/>
<path d="M550.15 27.96L542.932 50.4974H519.573L538.471 64.4263L531.253 86.9637L550.15 73.0348L569.048 86.9637L561.83 64.4263L580.727 50.4974H557.368L550.15 27.96Z" fill="#FF9C01"/>
<path d="M321.971 9.31885L329.189 31.5343H352.548L333.65 45.2642L340.868 67.4797L321.971 53.7498L303.073 67.4797L310.291 45.2642L291.394 31.5343H314.753L321.971 9.31885Z" fill="#FFD7A7"/>
<path d="M474.15 9.31982L466.932 31.5353H443.573L462.471 45.2652L455.253 67.4807L474.15 53.7508L493.048 67.4807L485.83 45.2652L504.727 31.5353H481.368L474.15 9.31982Z" fill="#FFD7A7"/>
<path d="M398.387 0L405.605 22.2155H428.964L410.066 35.9454L417.284 58.1609L398.387 44.431L379.489 58.1609L386.708 35.9454L367.81 22.2155H391.169L398.387 0Z" fill="#FF9C01"/>
<path d="M840.151 164.015L847.369 186.23H870.728L851.83 199.96L859.048 222.176L840.151 208.446L821.253 222.176L828.471 199.96L809.574 186.23H832.932L840.151 164.015Z" fill="#FF9C01"/>
<path d="M1565.62 164.01L1558.29 186.225H1534.6L1553.77 199.955L1546.44 222.171L1565.62 208.441L1584.79 222.171L1577.46 199.955L1596.64 186.225H1572.94L1565.62 164.01Z" fill="#FF9C01"/>
<path d="M904.451 107.168L911.67 129.384H935.028L916.131 143.114L923.349 165.329L904.451 151.599L885.554 165.329L892.772 143.114L873.874 129.384H897.233L904.451 107.168Z" fill="#FFD7A7"/>
<path d="M1511.68 107.17L1504.57 129.385H1481.55L1500.17 143.115L1493.06 165.331L1511.68 151.601L1530.31 165.331L1523.19 143.115L1541.82 129.385H1518.8L1511.68 107.17Z" fill="#FFD7A7"/>
<path d="M975.276 60.5732L982.494 82.7887H1005.85L986.955 96.5186L994.173 118.734L975.276 105.004L956.378 118.734L963.596 96.5186L944.699 82.7887H968.057L975.276 60.5732Z" fill="#FF9C01"/>
<path d="M1435.62 60.5698L1428.29 82.7853H1404.6L1423.77 96.5152L1416.44 118.731L1435.62 105.001L1454.79 118.731L1447.46 96.5152L1466.64 82.7853H1442.94L1435.62 60.5698Z" fill="#FF9C01"/>
<path d="M1052.62 27.957L1059.84 50.1725H1083.2L1064.3 63.9024L1071.52 86.1179L1052.62 72.388L1033.73 86.1179L1040.94 63.9024L1022.05 50.1725H1045.4L1052.62 27.957Z" fill="#FFD7A7"/>
<path d="M1358.15 27.96L1350.93 50.4974H1327.57L1346.47 64.4263L1339.25 86.9637L1358.15 73.0348L1377.05 86.9637L1369.83 64.4263L1388.73 50.4974H1365.37L1358.15 27.96Z" fill="#FFD7A7"/>
<path d="M1129.97 9.31885L1137.19 31.5343H1160.55L1141.65 45.2642L1148.87 67.4797L1129.97 53.7498L1111.07 67.4797L1118.29 45.2642L1099.39 31.5343H1122.75L1129.97 9.31885Z" fill="#FF9C01"/>
<path d="M1282.15 9.31982L1274.93 31.5353H1251.57L1270.47 45.2652L1263.25 67.4807L1282.15 53.7508L1301.05 67.4807L1293.83 45.2652L1312.73 31.5353H1289.37L1282.15 9.31982Z" fill="#FF9C01"/>
<path d="M1206.39 0L1213.61 22.2155H1236.96L1218.07 35.9454L1225.28 58.1609L1206.39 44.431L1187.49 58.1609L1194.71 35.9454L1175.81 22.2155H1199.17L1206.39 0Z" fill="#FFD7A7"/>
</svg>
