<svg width="1040" height="149" viewBox="0 0 1040 149" fill="none" xmlns="http://www.w3.org/2000/svg">
<path d="M20.9056 106.649L25.5991 121.094H40.7879L28.4999 130.022L33.1935 144.467L20.9056 135.539L8.61758 144.467L13.3112 130.022L1.02319 121.094H16.212L20.9056 106.649Z" fill="#FFD7A7"/>
<path d="M492.632 106.646L487.871 121.091H472.462L484.928 130.019L480.166 144.464L492.632 135.536L505.098 144.464L500.337 130.019L512.803 121.091H497.394L492.632 106.646Z" fill="#FFD7A7"/>
<path d="M62.7166 69.6851L67.4102 84.1304H82.5989L70.311 93.0582L75.0046 107.504L62.7166 98.5758L50.4286 107.504L55.1222 93.0582L42.8342 84.1304H58.023L62.7166 69.6851Z" fill="#FF9C01"/>
<path d="M457.563 69.686L452.938 84.1314H437.969L450.079 93.0592L445.454 107.505L457.563 98.5768L469.673 107.505L465.048 93.0592L477.158 84.1314H462.189L457.563 69.686Z" fill="#FF9C01"/>
<path d="M108.769 39.3872L113.463 53.8326H128.652L116.364 62.7603L121.057 77.2057L108.769 68.278L96.4815 77.2057L101.175 62.7603L88.8871 53.8326H104.076L108.769 39.3872Z" fill="#FFD7A7"/>
<path d="M408.101 39.3848L403.339 53.8301H387.93L400.396 62.7579L395.635 77.2033L408.101 68.2755L420.567 77.2033L415.805 62.7579L428.271 53.8301H412.863L408.101 39.3848Z" fill="#FFD7A7"/>
<path d="M159.064 18.1786L163.758 32.624H178.946L166.658 41.5517L171.352 55.9971L159.064 47.0694L146.776 55.9971L151.47 41.5517L139.182 32.624H154.37L159.064 18.1786Z" fill="#FF9C01"/>
<path d="M357.73 18.1805L353.036 32.8353H337.847L350.135 41.8924L345.442 56.5471L357.73 47.49L370.018 56.5471L365.324 41.8924L377.612 32.8353H362.423L357.73 18.1805Z" fill="#FF9C01"/>
<path d="M209.358 6.05945L214.052 20.5048H229.241L216.953 29.4326L221.646 43.8779L209.358 34.9502L197.07 43.8779L201.764 29.4326L189.476 20.5048H204.665L209.358 6.05945Z" fill="#FFD7A7"/>
<path d="M308.311 6.06018L303.618 20.5056H288.429L300.717 29.4333L296.024 43.8787L308.311 34.9509L320.599 43.8787L315.906 29.4333L328.194 20.5056H313.005L308.311 6.06018Z" fill="#FFD7A7"/>
<path d="M259.047 0L263.741 14.4454H278.93L266.642 23.3731L271.335 37.8185L259.047 28.8908L246.759 37.8185L251.453 23.3731L239.165 14.4454H254.354L259.047 0Z" fill="#FF9C01"/>
<path d="M546.299 106.649L550.993 121.094H566.182L553.894 130.022L558.587 144.467L546.299 135.539L534.011 144.467L538.705 130.022L526.417 121.094H541.606L546.299 106.649Z" fill="#FF9C01"/>
<path d="M1018.03 106.646L1013.26 121.091H997.855L1010.32 130.019L1005.56 144.464L1018.03 135.536L1030.49 144.464L1025.73 130.019L1038.2 121.091H1022.79L1018.03 106.646Z" fill="#FF9C01"/>
<path d="M588.11 69.6851L592.804 84.1304H607.993L595.705 93.0582L600.398 107.504L588.11 98.5758L575.822 107.504L580.516 93.0582L568.228 84.1304H583.417L588.11 69.6851Z" fill="#FFD7A7"/>
<path d="M982.957 69.686L978.332 84.1314H963.363L975.473 93.0592L970.847 107.505L982.957 98.5768L995.067 107.505L990.442 93.0592L1002.55 84.1314H987.583L982.957 69.686Z" fill="#FFD7A7"/>
<path d="M634.163 39.3872L638.857 53.8326H654.045L641.758 62.7603L646.451 77.2057L634.163 68.278L621.875 77.2057L626.569 62.7603L614.281 53.8326H629.47L634.163 39.3872Z" fill="#FF9C01"/>
<path d="M933.495 39.3848L928.733 53.8301H913.324L925.79 62.7579L921.029 77.2033L933.495 68.2755L945.961 77.2033L941.199 62.7579L953.665 53.8301H938.256L933.495 39.3848Z" fill="#FF9C01"/>
<path d="M684.458 18.1786L689.151 32.624H704.34L692.052 41.5517L696.746 55.9971L684.458 47.0694L672.17 55.9971L676.863 41.5517L664.575 32.624H679.764L684.458 18.1786Z" fill="#FFD7A7"/>
<path d="M883.123 18.1805L878.43 32.8353H863.241L875.529 41.8924L870.835 56.5471L883.123 47.49L895.411 56.5471L890.718 41.8924L903.006 32.8353H887.817L883.123 18.1805Z" fill="#FFD7A7"/>
<path d="M734.752 6.05945L739.446 20.5048H754.635L742.347 29.4326L747.04 43.8779L734.752 34.9502L722.464 43.8779L727.158 29.4326L714.87 20.5048H730.059L734.752 6.05945Z" fill="#FF9C01"/>
<path d="M833.705 6.06018L829.011 20.5056H813.823L826.111 29.4333L821.417 43.8787L833.705 34.9509L845.993 43.8787L841.299 29.4333L853.587 20.5056H838.399L833.705 6.06018Z" fill="#FF9C01"/>
<path d="M784.441 0L789.134 14.4454H804.323L792.035 23.3731L796.729 37.8185L784.441 28.8908L772.153 37.8185L776.846 23.3731L764.558 14.4454H779.747L784.441 0Z" fill="#FFD7A7"/>
</svg>
