<svg width="918" height="132" viewBox="0 0 918 132" fill="none" xmlns="http://www.w3.org/2000/svg">
<path d="M18.4514 94.1285L22.594 106.878H35.9996L25.1542 114.758L29.2968 127.507L18.4514 119.628L7.60592 127.507L11.7485 114.758L0.903074 106.878H14.3088L18.4514 94.1285Z" fill="#FFD7A7"/>
<path d="M434.8 94.1261L430.597 106.876H416.997L428 114.755L423.797 127.505L434.8 119.625L445.803 127.505L441.6 114.755L452.603 106.876H439.003L434.8 94.1261Z" fill="#FFD7A7"/>
<path d="M55.3541 61.5044L59.4967 74.254H72.9024L62.0569 82.1336L66.1995 94.8832L55.3541 87.0036L44.5086 94.8832L48.6512 82.1336L37.8058 74.254H51.2115L55.3541 61.5044Z" fill="#FF9C01"/>
<path d="M403.848 61.5052L399.766 74.2548H386.554L397.242 82.1345L393.16 94.8841L403.848 87.0044L414.536 94.8841L410.454 82.1345L421.142 74.2548H407.931L403.848 61.5052Z" fill="#FF9C01"/>
<path d="M96.0006 34.7634L100.143 47.513H113.549L102.703 55.3927L106.846 68.1423L96.0006 60.2626L85.1551 68.1423L89.2977 55.3927L78.4523 47.513H91.858L96.0006 34.7634Z" fill="#FFD7A7"/>
<path d="M360.192 34.7612L355.99 47.5108H342.39L353.392 55.3905L349.19 68.1401L360.192 60.2604L371.195 68.1401L366.992 55.3905L377.995 47.5108H364.395L360.192 34.7612Z" fill="#FFD7A7"/>
<path d="M140.391 16.0444L144.533 28.794H157.939L147.094 36.6737L151.236 49.4233L140.391 41.5436L129.545 49.4233L133.688 36.6737L122.842 28.794H136.248L140.391 16.0444Z" fill="#FF9C01"/>
<path d="M315.734 16.0463L311.592 28.9806H298.186L309.031 36.9745L304.889 49.9088L315.734 41.915L326.58 49.9088L322.437 36.9745L333.283 28.9806H319.877L315.734 16.0463Z" fill="#FF9C01"/>
<path d="M184.781 5.34802L188.924 18.0976H202.329L191.484 25.9773L195.626 38.7269L184.781 30.8472L173.936 38.7269L178.078 25.9773L167.233 18.0976H180.638L184.781 5.34802Z" fill="#FFD7A7"/>
<path d="M272.117 5.34875L267.975 18.0983H254.569L265.415 25.978L261.272 38.7276L272.117 30.8479L282.963 38.7276L278.82 25.978L289.666 18.0983H276.26L272.117 5.34875Z" fill="#FFD7A7"/>
<path d="M228.636 0L232.779 12.7496H246.185L235.339 20.6292L239.482 33.3788L228.636 25.4992L217.791 33.3788L221.934 20.6292L211.088 12.7496H224.494L228.636 0Z" fill="#FF9C01"/>
<path d="M482.167 94.1285L486.31 106.878H499.715L488.87 114.758L493.012 127.507L482.167 119.628L471.321 127.507L475.464 114.758L464.619 106.878H478.024L482.167 94.1285Z" fill="#FF9C01"/>
<path d="M898.516 94.1261L894.313 106.876H880.713L891.716 114.755L887.513 127.505L898.516 119.625L909.518 127.505L905.316 114.755L916.318 106.876H902.718L898.516 94.1261Z" fill="#FF9C01"/>
<path d="M519.07 61.5044L523.212 74.254H536.618L525.772 82.1336L529.915 94.8832L519.07 87.0036L508.224 94.8832L512.367 82.1336L501.521 74.254H514.927L519.07 61.5044Z" fill="#FFD7A7"/>
<path d="M867.564 61.5052L863.481 74.2548H850.27L860.958 82.1345L856.876 94.8841L867.564 87.0044L878.252 94.8841L874.17 82.1345L884.858 74.2548H871.646L867.564 61.5052Z" fill="#FFD7A7"/>
<path d="M559.716 34.7634L563.859 47.513H577.264L566.419 55.3927L570.562 68.1423L559.716 60.2626L548.871 68.1423L553.013 55.3927L542.168 47.513H555.574L559.716 34.7634Z" fill="#FF9C01"/>
<path d="M823.908 34.7612L819.705 47.5108H806.105L817.108 55.3905L812.905 68.1401L823.908 60.2604L834.911 68.1401L830.708 55.3905L841.711 47.5108H828.111L823.908 34.7612Z" fill="#FF9C01"/>
<path d="M604.106 16.0444L608.249 28.794H621.655L610.809 36.6737L614.952 49.4233L604.106 41.5436L593.261 49.4233L597.404 36.6737L586.558 28.794H599.964L604.106 16.0444Z" fill="#FFD7A7"/>
<path d="M779.45 16.0463L775.307 28.9806H761.902L772.747 36.9745L768.604 49.9088L779.45 41.915L790.295 49.9088L786.153 36.9745L796.998 28.9806H783.592L779.45 16.0463Z" fill="#FFD7A7"/>
<path d="M648.497 5.34802L652.639 18.0976H666.045L655.199 25.9773L659.342 38.7269L648.497 30.8472L637.651 38.7269L641.794 25.9773L630.948 18.0976H644.354L648.497 5.34802Z" fill="#FF9C01"/>
<path d="M735.833 5.34875L731.69 18.0983H718.285L729.13 25.978L724.988 38.7276L735.833 30.8479L746.679 38.7276L742.536 25.978L753.381 18.0983H739.976L735.833 5.34875Z" fill="#FF9C01"/>
<path d="M692.352 0L696.495 12.7496H709.9L699.055 20.6292L703.197 33.3788L692.352 25.4992L681.507 33.3788L685.649 20.6292L674.804 12.7496H688.209L692.352 0Z" fill="#FFD7A7"/>
</svg>
