<svg width="155" height="155" viewBox="0 0 155 155" fill="none" xmlns="http://www.w3.org/2000/svg">
<circle cx="77.5" cy="77.5" r="77.5" fill="#B60000"/>
<path d="M74.6102 11.9152H82.9163C82.9911 11.9816 83.0575 12.0896 83.1323 12.1062C85.0344 12.4634 86.9697 12.7125 88.8386 13.186C93.3565 14.2774 97.3848 16.8364 100.293 20.4621C103.288 24.2627 104.998 28.9164 105.177 33.7519C105.318 36.6825 105.176 39.6198 104.753 42.5231C104.122 46.5932 102.843 50.5359 100.966 54.2015C99.1495 58.0873 96.6353 61.6065 93.5481 64.5842C93.274 64.8416 93.0332 65.1324 92.6096 65.5726C92.8395 65.5535 93.0674 65.5146 93.2906 65.4563C96.8569 64.1617 100.619 63.4874 104.413 63.4629C105.955 63.5025 107.495 63.6329 109.022 63.8532C112.341 64.1992 115.58 65.0916 118.608 66.4946C122.797 68.3078 126.477 71.1231 129.323 74.6927C131.666 77.6353 133.205 81.1354 133.791 84.8511C133.957 85.8478 134.074 86.8445 134.215 87.8412V89.5025C134.148 89.6021 134.024 89.7101 134.024 89.8181C133.956 93.1349 133.237 96.406 131.906 99.4449C130.277 103.641 127.372 107.221 123.6 109.678C119.1 112.534 113.78 113.813 108.474 113.316C105.21 113.109 101.99 112.452 98.9056 111.364C95.7053 110.281 92.7156 108.654 90.0679 106.555C88.307 105.11 86.6458 103.531 84.9596 102.028C85.2005 103.232 85.4248 104.52 85.7404 105.816C86.5046 108.839 87.2937 111.857 88.1076 114.869C90.4383 123.555 94.9898 131.484 101.314 137.877C102.22 138.866 102.976 139.979 103.873 141.142H53.9696C58.704 135.552 62.9983 129.945 65.4569 123.151C67.8388 116.467 69.4686 109.538 70.316 102.493C69.9339 102.659 69.7761 102.975 69.5352 103.216C68.4425 104.447 67.2717 105.607 66.03 106.688C62.5804 109.42 58.6302 111.451 54.4015 112.668C49.828 114.1 44.9581 114.304 40.2811 113.258C35.0902 112.108 30.5452 108.995 27.5977 104.57C24.8469 100.446 23.1787 95.6952 22.7469 90.7567C22.2648 86.794 22.8588 82.7745 24.4665 79.1206C26.0743 75.4667 28.6363 72.3132 31.8836 69.9914C34.6653 67.9616 37.7797 66.4325 41.0868 65.4729C43.5262 64.7494 46.0296 64.2626 48.5623 64.0193C51.847 63.6929 55.1615 63.8384 58.405 64.4513C60.2158 64.8001 62.0182 65.232 63.8289 65.6224C63.0834 64.7436 62.2845 63.9114 61.4368 63.1306C58.2123 59.7613 55.7381 55.7472 54.1772 51.3525C52.0924 45.8871 50.8548 40.2057 51.6272 34.3001C51.8217 32.3362 52.1773 30.3915 52.6904 28.4858C53.9544 23.8318 56.767 19.7477 60.6643 16.9071C63.7443 14.7195 67.2652 13.2312 70.9805 12.5464C72.2347 12.3139 73.4225 12.1311 74.6102 11.9152Z" fill="white"/>
</svg>
